<svg data-v-0dd9719b="" version="1.0" xmlns="http://www.w3.org/2000/svg" xmlns:xlink="http://www.w3.org/1999/xlink" width="100%" height="100%" viewBox="0 0 340.000000 250.000000" preserveAspectRatio="xMidYMid meet" color-interpolation-filters="sRGB" style="margin: auto;"> <rect data-v-0dd9719b="" x="0" y="0" width="100%" height="100%" fill="#fff" fill-opacity="1" class="background"></rect> <rect data-v-0dd9719b="" x="0" y="0" width="100%" height="100%" fill="url(#watermark)" fill-opacity="1" class="watermarklayer"></rect> <g data-v-0dd9719b="" fill="#333333" class="icon-text-wrapper icon-svg-group iconsvg" transform="translate(58.215003967285156,97.7037467956543)"><g class="iconsvg-imagesvg" transform="translate(0,0.8598766326904297)"><g><rect fill="#333333" fill-opacity="0" stroke-width="2" x="0" y="0" width="60" height="52.87275290800141" class="image-rect"></rect> <svg x="0" y="0" width="60" height="52.87275290800141" filtersec="colorsb434050828" class="image-svg-svg primary" style="overflow: visible;"><svg xmlns="http://www.w3.org/2000/svg" viewBox="0 0 113.4800033569336 100"><g><g><path fill="#02035e" d="M84.94 62.54l-28.2-12.38-28.19 12.38L0 75.08 56.74 100l56.74-24.92-28.54-12.54z"></path><path fill="#00b0d8" opacity=".8" d="M84.94 37.46l-28.2-12.38-28.19 12.38L0 50l28.55 12.54 28.19 12.38 28.2-12.38L113.48 50 84.94 37.46z"></path><path fill="#00b0d8" opacity=".5" d="M56.74 0L0 24.92l28.55 12.54 28.19 12.38 28.2-12.38 28.54-12.54L56.74 0z"></path></g></g></svg></svg> <!----></g></g> <g transform="translate(67,0)"><g data-gra="path-name" fill-rule="" class="tp-name iconsvg-namesvg" transform="translate(0,0)"><g transform="scale(1)"><g><path d="M5.52-33.29L9.05-33.29 9.05-18.62 29.9-18.62 29.9-15.62 9.05-15.62 9.05 0.9Q14.57-0.1 18.38-2L18.38-2 18.38 0.95Q16.81 2 13.5 2.98 10.19 3.95 5.52 4.43L5.52 4.43 5.52 3.05 5.52 1.43 5.52-15.62 1.33-15.62 1.33-18.62 5.52-18.62 5.52-33.29ZM18.62-13.9Q20.1-10.24 23.24-5.67 26.38-1.1 29.9 3.05L29.9 3.05 25.71 3.05Q22.9-0.24 19.98-4.74 17.05-9.24 14.95-13.9L14.95-13.9 18.62-13.9ZM13.52-20.1Q16.24-22.71 18.9-26.1 21.57-29.48 23.19-32.81L23.19-32.81 26.81-32.81Q25.19-29.29 22.69-25.93 20.19-22.57 17.71-20.1L17.71-20.1 13.52-20.1ZM56.33-16.33Q57.86-13.81 59.57-11.79 61.29-9.76 62.71-8.48L62.71-8.48 58.76-8.48Q58.24-8.95 57.48-9.76L57.48-9.76 57.48 4.43 37.81 4.43 37.81-9.62Q37.1-8.9 36.57-8.48L36.57-8.48 32.57-8.48Q34.05-9.76 35.83-11.79 37.62-13.81 39.24-16.33L39.24-16.33 32.67-16.33 32.67-19.29 41.05-19.29Q41.76-20.57 42.43-22.05L42.43-22.05 36.05-22.05 36.05-25 43.67-25Q44.33-26.81 44.57-27.76L44.57-27.76 35.14-27.76 35.14-30.71 45.33-30.71Q45.76-33.19 45.76-33.33L45.76-33.33 49.1-33.33Q48.86-31.67 48.62-30.71L48.62-30.71 59.71-30.71 59.71-27.76 47.9-27.76Q47.67-26.81 47.1-25L47.1-25 58.81-25 58.81-22.05 45.95-22.05Q45.38-20.71 44.67-19.29L44.67-19.29 62.19-19.29 62.19-16.33 56.33-16.33ZM54.1-5.71L54.1-8.62Q54.1-9.29 53.74-9.57 53.38-9.86 52.86-9.86L52.86-9.86 41.19-9.86 41.19-5.71 54.1-5.71ZM54.1 1.43L54.1-2.71 41.19-2.71 41.19 1.43 54.1 1.43ZM54.1-12.86Q54.48-12.86 55.05-12.76L55.05-12.76Q53.9-14.29 52.76-16.33L52.76-16.33 43-16.33Q41.95-14.62 40.62-12.86L40.62-12.86 41.19-12.86 54.1-12.86ZM65.38-25.19L65.38-28.19 94.52-28.19 94.52-25.19 81.76-25.19 81.76-21.43 89.62-21.43Q91.05-21.38 92.02-20.6 93-19.81 93-18.29L93-18.29 93-4.67Q93-2.67 91.95-1.71 90.9-0.76 89.38-0.71L89.38-0.71 85.48-0.71 84.86-3.71 88.33-3.71 88.38-3.71Q89.38-3.71 89.38-4.71L89.38-4.71 89.38-16.86Q89.38-17.57 89.02-17.93 88.67-18.29 88.14-18.29L88.14-18.29 81.76-18.29 81.76 4.67 78.14 4.67 78.14-18.29 70.52-18.29 70.52-0.71 66.9-0.71 66.9-21.43 69.38-21.43 70.52-21.43 78.14-21.43 78.14-25.19 65.38-25.19ZM80.14-33.33L82-28.76 78.19-28.76 76.33-33.33 80.14-33.33ZM97.19 4.71Q98.33 2.14 99.14-0.98 99.95-4.1 99.95-7L99.95-7 99.95-27.1 101-27.1 103.52-27.1 109.95-27.1 109.95-33.33 113.52-33.33 113.52-31.62 124.24-31.62 124.24-28.62 113.52-28.62 113.52-27.1 122.67-27.1Q124.38-27.1 125.19-26.31 126-25.52 126-24.43L126-24.43 126-19.86 122.48-19.86 122.48-22.76Q122.48-23.38 122.12-23.71 121.76-24.05 121.24-24.1L121.24-24.1 103.52-24.1 103.52-7Q103.52-3.95 102.71-0.83 101.9 2.29 100.76 4.71L100.76 4.71 97.19 4.71ZM113-23.48L113-20.86 121.76-21.62 121.76-18.62 113-17.86 113-17.81Q113-16.52 113.52-15.9 114.05-15.29 114.81-15.24L114.81-15.24 125.62-15.24 125-12.24 113.9-12.24Q112.05-12.33 110.76-13.48 109.48-14.62 109.48-16.9L109.48-16.9 109.48-17.52 104.62-17.1 104.62-20.1 109.48-20.52 109.48-23.48 109.48-23.48 113-23.48ZM121.14 4.76Q119.29 4.67 118 3.52 116.71 2.38 116.71 0.1L116.71 0.1 116.71-6Q116.71-6.86 116.24-7.24 115.76-7.62 115.05-7.57L115.05-7.57 110.14-7.57 110.14-6.38Q110.14-2.71 109.33 0.17 108.52 3.05 107.38 4.71L107.38 4.71 103.86 4.71Q105 2.76 105.81-0.14 106.62-3.05 106.62-6.38L106.62-6.38 106.62-10.57 107.67-10.57 110.14-10.57 116.71-10.57Q118.19-10.62 119.24-9.88 120.29-9.14 120.29-7.48L120.29-7.48 120.29-0.86Q120.29 0.43 120.81 1.07 121.33 1.71 122.1 1.76L122.1 1.76 126.67 1.76 126.05 4.76 121.14 4.76ZM141.86-33.33L145.38-33.33 145.38-19.19 157.9-19.19 157.9-16.19 150.76-16.19 150.76-0.81Q150.76 0.48 151.4 1.1 152.05 1.71 153 1.76L153 1.76 157.9 1.76 157.29 4.76 151.86 4.76Q150 4.67 148.71 3.52 147.43 2.38 147.43 0.1L147.43 0.1 147.43-16.19 139.05-16.19 139.05-10.57Q139.05-6.62 137.4-2.55 135.76 1.52 133.38 4.76L133.38 4.76 129.38 4.76Q132 1.43 133.83-2.76 135.67-6.95 135.67-10.86L135.67-10.86 135.67-16.19 129.33-16.19 129.33-19.19 141.86-19.19 141.86-33.33ZM152.38-31.67L155.95-31.67 151.9-20.62 148.33-20.62 152.38-31.67ZM131.14-31.67L134.71-31.67 138.71-20.62 135.19-20.62 131.14-31.67Z" transform="translate(-1.3300000429153442, 33.33000183105469)"></path></g> <!----> <!----> <!----> <!----> <!----> <!----> <!----></g></g> <g data-gra="path-slogan" fill-rule="" class="tp-slogan iconsvg-slogansvg" fill="#333333" transform="translate(1.17999267578125,44.090003967285156)"><rect width="0"></rect> <rect x="157.2100067138672" width="0"></rect> <g transform="translate(0,0)"><g transform="scale(1)"><path d="M2.06-5.06L6.56-5.06L6.56-8.58L7.73-8.58L7.73 0L6.56 0L6.56-3.98L2.06-3.98L2.06 0L0.89 0L0.89-8.58L2.06-8.58L2.06-5.06ZM14.25-3.19L14.25-8.58L15.42-8.58L15.42-3.05Q15.28 0.05 11.90 0.14L11.90 0.14Q8.76 0.05 8.62-2.86L8.62-2.86L8.62-8.58L9.79-8.58L9.79-3.19Q9.84-0.84 11.95-0.80L11.95-0.80Q14.25-0.84 14.25-3.19L14.25-3.19ZM22.68-3.61L20.05-3.61L20.05-4.59L23.80-4.59L23.80 0L23.05 0L22.77-1.08Q21.79 0.09 19.96 0.14L19.96 0.14Q18.22 0.14 17.29-0.75L17.29-0.75Q15.88-2.06 15.93-4.36L15.93-4.36Q16.26-8.63 20.01-8.81L20.01-8.81Q23.19-8.63 23.66-6L23.66-6L22.54-6Q22.07-7.78 19.96-7.83L19.96-7.83Q17.29-7.64 17.15-4.31L17.15-4.31Q17.15-0.75 20.01-0.75L20.01-0.75Q21.04-0.75 21.79-1.31L21.79-1.31Q22.72-2.06 22.68-3.61L22.68-3.61ZM30.31-3.19L30.31-8.58L31.49-8.58L31.49-3.05Q31.34 0.05 27.97 0.14L27.97 0.14Q24.83 0.05 24.69-2.86L24.69-2.86L24.69-8.58L25.86-8.58L25.86-3.19Q25.91-0.84 28.02-0.80L28.02-0.80Q30.31-0.84 30.31-3.19L30.31-3.19ZM38.00 0L37.15-2.48L33.68-2.48L32.79 0L31.62 0L34.86-8.58L36.17-8.58L39.26 0L38.00 0ZM35.42-7.31L34.06-3.52L36.73-3.52L35.47-7.31L35.42-7.31ZM40.76-8.58L45.07-1.64L45.07-8.58L46.19-8.58L46.19 0L44.88 0L40.52-6.94L40.48-6.94L40.48 0L39.35 0L39.35-8.58L40.76-8.58ZM53.46-3.61L50.83-3.61L50.83-4.59L54.58-4.59L54.58 0L53.83 0L53.55-1.08Q52.56 0.09 50.74 0.14L50.74 0.14Q49.00 0.14 48.06-0.75L48.06-0.75Q46.66-2.06 46.71-4.36L46.71-4.36Q47.03-8.63 50.78-8.81L50.78-8.81Q53.97-8.63 54.44-6L54.44-6L53.31-6Q52.85-7.78 50.74-7.83L50.74-7.83Q48.06-7.64 47.92-4.31L47.92-4.31Q47.92-0.75 50.78-0.75L50.78-0.75Q51.81-0.75 52.56-1.31L52.56-1.31Q53.50-2.06 53.46-3.61L53.46-3.61ZM56.22 0L55.56 0L55.56-1.27L56.83-1.27L56.83-0.09Q56.83 1.45 55.56 1.69L55.56 1.69L55.56 1.08Q56.22 0.98 56.22 0L56.22 0ZM67.36-6.05L67.36-6.05L66.24-6.05Q65.82-7.78 63.85-7.83L63.85-7.83Q61.13-7.69 61.03-4.36L61.03-4.36Q61.03-0.80 63.89-0.80L63.89-0.80Q65.86-0.84 66.33-3.19L66.33-3.19L67.46-3.19Q66.94 0.05 63.66 0.14L63.66 0.14Q59.91 0 59.82-4.31L59.82-4.31Q60.00-8.63 63.85-8.81L63.85-8.81Q66.89-8.72 67.36-6.05ZM69.05-5.06L73.55-5.06L73.55-8.58L74.72-8.58L74.72 0L73.55 0L73.55-3.98L69.05-3.98L69.05 0L67.87 0L67.87-8.58L69.05-8.58L69.05-5.06ZM81.23 0L80.38-2.48L76.92-2.48L76.03 0L74.85 0L78.09-8.58L79.40-8.58L82.49 0L81.23 0ZM78.65-7.31L77.29-3.52L79.96-3.52L78.70-7.31L78.65-7.31ZM83.99-8.58L88.30-1.64L88.30-8.58L89.43-8.58L89.43 0L88.11 0L83.75-6.94L83.71-6.94L83.71 0L82.58 0L82.58-8.58L83.99-8.58ZM96.69-3.61L94.06-3.61L94.06-4.59L97.81-4.59L97.81 0L97.06 0L96.78-1.08Q95.80 0.09 93.97 0.14L93.97 0.14Q92.23 0.14 91.30-0.75L91.30-0.75Q89.89-2.06 89.94-4.36L89.94-4.36Q90.27-8.63 94.02-8.81L94.02-8.81Q97.20-8.63 97.67-6L97.67-6L96.55-6Q96.08-7.78 93.97-7.83L93.97-7.83Q91.30-7.64 91.16-4.31L91.16-4.31Q91.16-0.75 94.02-0.75L94.02-0.75Q95.05-0.75 95.80-1.31L95.80-1.31Q96.73-2.06 96.69-3.61L96.69-3.61ZM105.82-6.05L105.82-6.05L104.70-6.05Q104.28-7.78 102.31-7.83L102.31-7.83Q99.59-7.69 99.50-4.36L99.50-4.36Q99.50-0.80 102.35-0.80L102.35-0.80Q104.32-0.84 104.79-3.19L104.79-3.19L105.92-3.19Q105.40 0.05 102.12 0.14L102.12 0.14Q98.37 0 98.28-4.31L98.28-4.31Q98.46-8.63 102.31-8.81L102.31-8.81Q105.35-8.72 105.82-6.05ZM107.51-5.06L112.01-5.06L112.01-8.58L113.18-8.58L113.18 0L112.01 0L112.01-3.98L107.51-3.98L107.51 0L106.33 0L106.33-8.58L107.51-8.58L107.51-5.06ZM119.69-3.19L119.69-8.58L120.86-8.58L120.86-3.05Q120.72 0.05 117.35 0.14L117.35 0.14Q114.20 0.05 114.06-2.86L114.06-2.86L114.06-8.58L115.24-8.58L115.24-3.19Q115.28-0.84 117.39-0.80L117.39-0.80Q119.69-0.84 119.69-3.19L119.69-3.19ZM123.11-8.58L127.42-1.64L127.42-8.58L128.54-8.58L128.54 0L127.23 0L122.87-6.94L122.82-6.94L122.82 0L121.70 0L121.70-8.58L123.11-8.58ZM138.94-6.05L138.94-6.05L137.82-6.05Q137.39-7.78 135.42-7.83L135.42-7.83Q132.71-7.69 132.61-4.36L132.61-4.36Q132.61-0.80 135.47-0.80L135.47-0.80Q137.44-0.84 137.91-3.19L137.91-3.19L139.03-3.19Q138.52 0.05 135.24 0.14L135.24 0.14Q131.49 0 131.39-4.31L131.39-4.31Q131.58-8.63 135.42-8.81L135.42-8.81Q138.47-8.72 138.94-6.05ZM139.64-8.58L140.81-8.58L140.81 0L139.64 0L139.64-8.58ZM144.04-7.59L141.13-7.59L141.13-8.58L148.07-8.58L148.07-7.59L145.16-7.59L145.16 0L144.04 0L144.04-7.59ZM155.10-8.58L151.86-3.47L151.86 0L150.69 0L150.69-3.47L147.46-8.58L148.82-8.58L151.25-4.45L153.74-8.58L155.10-8.58Z" transform="translate(-0.890625, 8.8125)"></path></g></g></g></g></g><defs v-gra="od"></defs></svg>